Coordinates
version=1
nRows=21
nColumns=22
inDegrees=yes

Units are S.I. units (second, meters, Newtons, ...)
If the header above contains a line with 'inDegrees', this indicates whether rotational values are in degrees (yes) or radians (no).

endheader
time	pelvis_tilt	pelvis_list	pelvis_rotation	pelvis_tx	pelvis_ty	pelvis_tz	hip_flexion_r	hip_adduction_r	hip_rotation_r	knee_angle_r	ankle_angle_r	subtalar_angle_r	hip_flexion_l	hip_adduction_l	hip_rotation_l	knee_angle_l	ankle_angle_l	subtalar_angle_l	lumbar_extension	lumbar_bending	lumbar_rotation
      1.39000000	     -9.71324073	     -2.99282182	      3.57004087	     -1.00323901	      0.88110975	     -0.53972995	      8.24860313	     -2.13297902	      0.07942634	     -7.09130808	     13.36927376	      1.92354213	      7.59771051	     -4.10790873	    -12.74974970	    -10.85977739	     15.70620432	      5.24986514	      5.66857324	     -0.61096675	     12.83315351
      1.40000000	     -9.74553378	     -2.94365960	      3.62227553	     -1.00284607	      0.88099250	     -0.54046177	      8.27223944	     -2.24766514	      0.08745768	     -7.15921385	     13.46074092	      1.96837614	      7.65243569	     -4.00779571	    -12.66568481	    -10.95250584	     15.77992602	      5.21588370	      5.69140215	     -0.71864276	     12.88476338
      1.41000000	     -9.80902614	     -2.87584637	      3.67776448	     -1.00245755	      0.88081560	     -0.54129312	      8.39011055	     -2.39211736	      0.04839353	     -7.34997368	     13.63799181	      2.06513614	      7.73007223	     -3.87469956	    -12.56267804	    -11.02562324	     15.78187605	      5.12762795	      5.74767869	     -0.84427315	     12.96611167
      1.42000000	     -9.85917838	     -2.80708450	      3.74499996	     -1.00207675	      0.88063820	     -0.54221838	      8.51291789	     -2.54337447	      0.05119199	     -7.57997816	     13.79316489	      2.17743938	      7.79110534	     -3.73422011	    -12.44566379	    -11.09427560	     15.82192123	      5.01325877	      5.78070572	     -0.96734057	     13.02360989
      1.43000000	     -9.87771982	     -2.72767520	      3.82776806	     -1.00164093	      0.88047369	     -0.54325528	      8.62262334	     -2.71121625	      0.01883528	     -7.86175033	     14.01257713	      2.23052262	      7.80679129	     -3.57541139	    -12.33272965	    -11.14996307	     15.86514141	      4.94583558	      5.77511198	     -1.09763771	     13.09887155
      1.44000000	     -9.90251864	     -2.63675458	      3.91730371	     -1.00122579	      0.88027953	     -0.54437650	      8.78963683	     -2.89856206	      0.00403561	     -8.24234749	     14.25462105	      2.29857667	      7.82369641	     -3.39570656	    -12.20577328	    -11.19496782	     15.89910851	      4.84553531	      5.76759012	     -1.23935007	     13.16407607
      1.45000000	     -9.94448589	     -2.53585343	      4.00920156	     -1.00081178	      0.88003291	     -0.54558004	      9.02336716	     -3.10434395	      0.00405094	     -8.71611238	     14.49848761	      2.40589186	      7.84667672	     -3.19420838	    -12.07140111	    -11.21976354	     15.95392331	      4.67373672	      5.77354196	     -1.38941099	     13.22124048
      1.46000000	     -9.92714142	     -2.43515592	      4.11439570	     -1.00036500	      0.87983336	     -0.54686339	      9.23156556	     -3.31134460	     -0.01764584	     -9.27053794	     14.82233977	      2.45066994	      7.81069980	     -2.99482924	    -11.94419429	    -11.25916949	     16.01239459	      4.57908247	      5.70372375	     -1.53481774	     13.28624701
      1.47000000	     -9.91945491	     -2.31751230	      4.21908058	     -0.99991851	      0.87959117	     -0.54821641	      9.51175501	     -3.54198681	     -0.02175804	     -9.94234450	     15.15916358	      2.51208392	      7.76897116	     -2.76706942	    -11.80908797	    -11.27305988	     16.08600155	      4.44982414	      5.63761708	     -1.69709175	     13.33990863
      1.48000000	     -9.93779990	     -2.18109656	      4.32078655	     -0.99948672	      0.87928389	     -0.54964291	      9.88427478	     -3.80136604	     -0.01587165	    -10.73163466	     15.48676316	      2.63547811	      7.74674103	     -2.50770616	    -11.64621764	    -11.27665868	     16.17011365	      4.21908816	      5.59472431	     -1.88175501	     13.41929571
      1.49000000	     -9.87715710	     -2.04283727	      4.44376065	     -0.99900930	      0.87903874	     -0.55115758	     10.21255378	     -4.06123576	     -0.00533166	    -11.61088630	     15.90967548	      2.69421123	      7.64875959	     -2.25118574	    -11.50641534	    -11.30376319	     16.27966371	      4.09651005	      5.45228551	     -2.05904231	     13.43893715
      1.50000000	     -9.86380458	     -1.86209560	      4.55517308	     -0.99857758	      0.87870227	     -0.55274571	     10.67119442	     -4.37652415	      0.03374397	    -12.63144385	     16.29061823	      2.83043062	      7.58951033	     -1.93386777	    -11.31592809	    -11.31647086	     16.37612043	      3.86841079	      5.35309456	     -2.28803412	     13.51424028
      1.51000000	     -9.80836370	     -1.67295520	      4.68238150	     -0.99812685	      0.87837282	     -0.55441451	     11.13405239	     -4.70159427	      0.10444888	    -13.75339081	     16.71441083	      2.96542698	      7.49130460	     -1.60855149	    -11.13978247	    -11.34600109	     16.50594848	      3.66570933	      5.19634507	     -2.52143127	     13.53292296
      1.52000000	     -9.74541122	     -1.46408069	      4.81086930	     -0.99768808	      0.87800962	     -0.55618105	     11.65024932	     -5.05282212	      0.21343870	    -14.99079260	     17.12955620	      3.12973580	      7.38061562	     -1.25537597	    -10.96549310	    -11.37352907	     16.66309344	      3.45358108	      5.01897821	     -2.76780532	     13.52988362
      1.53000000	     -9.64758496	     -1.21663104	      4.95368528	     -0.99728458	      0.87765918	     -0.55803366	     12.18005088	     -5.44626279	      0.37327357	    -16.32859410	     17.53841790	      3.26181478	      7.24609733	     -0.85986661	    -10.76758535	    -11.43291326	     16.81014714	      3.31316271	      4.78234208	     -3.05602426	     13.52132518
      1.54000000	     -9.55436495	     -0.96283445	      5.09739492	     -0.99690373	      0.87726382	     -0.55995051	     12.78444641	     -5.84637740	      0.60081301	    -17.79643412	     17.89064699	      3.45573779	      7.10875040	     -0.45254727	    -10.58152302	    -11.47935214	     17.00115159	      3.14195556	      4.53932418	     -3.34698108	     13.47015253
      1.55000000	     -9.43242091	     -0.68662997	      5.25337237	     -0.99656849	      0.87688496	     -0.56193553	     13.41692901	     -6.26704157	      0.89841545	    -19.37741643	     18.18635832	      3.63705095	      6.94796465	     -0.02010243	    -10.37948714	    -11.54010089	     17.18969020	      3.02697511	      4.24286146	     -3.65943731	     13.39432468
      1.56000000	     -9.29669891	     -0.40208250	      5.41759105	     -0.99629039	      0.87651331	     -0.56396969	     14.10833562	     -6.68946464	      1.27472754	    -21.09380354	     18.39265249	      3.83391977	      6.77525466	      0.42205165	    -10.16974857	    -11.60345054	     17.38526969	      2.94096104	      3.91091626	     -3.97825481	     13.29094525
      1.57000000	     -9.14744850	     -0.11490965	      5.58957639	     -0.99607317	      0.87615822	     -0.56604564	     14.86751195	     -7.10338328	      1.72776327	    -22.95711395	     18.49028990	      4.05130229	      6.58885751	      0.86772733	     -9.95444469	    -11.66419469	     17.58725014	      2.87985123	      3.54254914	     -4.29582034	     13.15745011
      1.58000000	     -8.99049446	      0.16576506	      5.76811682	     -0.99587684	      0.87582720	     -0.56811850	     15.70892051	     -7.48874816	      2.25364375	    -24.98307073	     18.44243852	      4.29214238	      6.38288913	      1.30454241	     -9.73848606	    -11.70278954	     17.78089134	      2.83826670	      3.15294257	     -4.61118568	     12.98959837
      1.59000000	     -8.79697244	      0.44520907	      5.96091496	     -0.99571453	      0.87556670	     -0.57022093	     16.60598023	     -7.84856781	      2.82567790	    -27.17555168	     18.26653131	      4.48569350	      6.13042622	      1.73738681	     -9.50994800	    -11.72735446	     17.95537545	      2.83776231	      2.69998925	     -4.92046369	     12.79529514
